#!OML:ASF I:\Actors\actors\Patient Classification 1\Patient 1\Session 1\Subject1.ASF
:FULLY-SPECIFIED
:DEGREES
1162
root 0.609066 17.5386 9.64546 12.0423 -10.6625 -10.4018
lowerback 1.45458 1.91478 9.93887
upperback -8.71235 3.29773 0.816789
thorax -9.68325 0.85037 -4.97418
lowerneck -12.22 8.91115 12.6897
upperneck 12.5132 12.7081 -17.4959
head 7.87183 5.39736 -6.43083
rclavicle 2.88238e-014 3.73715e-014
rhumerus 80.0112 40.9842 -21.7013
rradius 99.7521
rwrist -31.6418
rhand 2.76406 -55.9701
rfingers 7.12502
rthumb 28.2351 276.137
lclavicle 2.88238e-014 3.73715e-014
lhumerus 6.29599 16.0134 80.1491
lradius 104.877
lwrist 102.412
lhand -28.8817 -3.95199
lfingers 7.12502
lthumb -2.23744 26.016
rfemur -5.24038 24.1926 25.0044
rtibia 1.98232
rfoot -12.717 -18.3584
rtoes -1.62272
lfemur 9.00225 -43.0691 -13.1283
ltibia -4.52484
lfoot -38.9295 55.7748
ltoes 20.0603
1163
root 0.610366 17.5407 9.64669 12.1706 -10.9914 -10.3802
lowerback 1.4891 2.09674 10.1429
upperback -8.83309 3.54914 0.569578
thorax -9.78039 0.935355 -5.37866
lowerneck -12.4176 8.8575 12.7998
upperneck 12.9809 12.5821 -17.0834
head 8.01233 5.35235 -6.32582
rclavicle -5.88403e-014 -6.36111e-015
rhumerus 80.4502 40.3594 -22.7371
rradius 98.7642
rwrist -31.3907
rhand 3.23847 -55.7068
rfingers 7.12502
rthumb 28.6884 276.476
lclavicle -5.88403e-014 -6.36111e-015
lhumerus 6.28278 15.6319 80.0105
lradius 104.883
lwrist 102.436
lhand -29.022 -3.8583
lfingers 7.12502
lthumb -2.37298 26.1083
rfemur -5.40061 24.3445 24.8792
rtibia 1.97632
rfoot -12.6536 -18.1974
rtoes -1.65598
lfemur 8.88947 -42.7832 -13.1145
ltibia -4.50407
lfoot -39.2063 55.6943
ltoes 20.457
1164
root 0.61163 17.5421 9.64609 12.3121 -11.3105 -10.3785
lowerback 1.53381 1.83004 10.2142
upperback -8.85008 3.22399 0.874189
thorax -9.89791 0.776838 -5.06495
lowerneck -12.5587 9.2234 12.0489
upperneck 13.1137 13.1818 -16.7305
head 8.09867 5.61223 -5.98379
rclavicle -4.17448e-015 -1.47101e-014
rhumerus 82.8582 40.1482 -22.9168
rradius 97.7801
rwrist -31.3465
rhand 3.56696 -55.628
rfingers 7.12502
rthumb 29.0022 276.609
lclavicle -4.17448e-015 -1.47101e-014
lhumerus 6.00635 16.8728 79.8713
lradius 105.067
lwrist 102.361
lhand -28.9706 -3.89136
lfingers 7.12502
lthumb -2.3233 26.0757
rfemur -5.57423 24.5029 24.7812
rtibia 1.97037
rfoot -12.5911 -18.0266
rtoes -1.56288
lfemur 8.7218 -42.4246 -13.0286
ltibia -4.46572
lfoot -39.4405 55.5247
ltoes 20.7525
1165
root 0.613006 17.5441 9.64571 12.4815 -11.6197 -10.3464
lowerback 1.53893 2.31045 10.4838
upperback -9.00509 3.85807 0.32828
thorax -9.92827 1.03139 -5.86051
lowerneck -12.5909 8.88811 12.8942
upperneck 13.381 12.5894 -16.7863
head 8.15774 5.36499 -6.23778
rclavicle 5.76476e-015 5.56597e-015
rhumerus 82.1414 39.2062 -25.1402
rradius 96.4986
rwrist -31.1668
rhand 3.87615 -55.5958
rfingers 7.12502
rthumb 29.2974 276.692
lclavicle 5.76476e-015 5.56597e-015
lhumerus 6.27014 15.507 79.9507
lradius 104.98
lwrist 102.297
lhand -28.8572 -3.93716
lfingers 7.12502
lthumb -2.21376 26.0311
rfemur -5.81532 24.539 24.6166
rtibia 1.97158
rfoot -12.4503 -17.7726
rtoes -1.83284
lfemur 8.51384 -42.185 -12.9613
ltibia -4.4212
lfoot -39.7804 55.4302
ltoes 21.0147
1166
root 0.615667 17.5478 9.64484 12.671 -11.8932 -10.3312
lowerback 1.49917 2.40818 10.6391
upperback -9.06589 3.99131 0.235223
thorax -9.93878 1.07611 -6.05727
lowerneck -12.5411 8.91767 13.062
upperneck 13.3572 12.6297 -16.938
head 8.17076 5.38395 -6.31409
rclavicle -5.43676e-014 -1.35174e-014
rhumerus 83.0248 38.5592 -26.5132
rradius 95.2178
rwrist -31.0516
rhand 4.09795 -55.651
rfingers 7.12502
rthumb 29.5092 276.674
lclavicle -5.43676e-014 -1.35174e-014
lhumerus 6.24618 15.4467 79.9419
lradius 105.025
lwrist 102.102
lhand -28.7633 -4.09398
lfingers 7.12502
lthumb -2.12315 25.8752
rfemur -6.11098 24.4415 24.4403
rtibia 1.99717
rfoot -12.2826 -17.4276
rtoes -2.35228
lfemur 8.29468 -42.0979 -12.8813
ltibia -4.37327
lfoot -40.3016 55.391
ltoes 21.4598
1167
root 0.618156 17.5521 9.64442 12.8011 -12.1784 -10.3045
lowerback 1.5362 2.5218 10.7425
upperback -9.12521 4.15276 0.142276
thorax -9.9891 1.13633 -6.23191
lowerneck -12.4478 8.9439 13.2816
upperneck 13.3128 12.6703 -17.1554
head 8.17806 5.40348 -6.42331
rclavicle 4.07509e-015 -2.54444e-014
rhumerus 83.7405 38.0357 -27.9814
rradius 93.8534
rwrist -30.7449
rhand 4.18165 -55.4987
rfingers 7.12502
rthumb 29.5891 276.84
lclavicle 4.07509e-015 -2.54444e-014
lhumerus 6.23727 15.364 80.0059
lradius 105.051
lwrist 101.935
lhand -28.687 -4.13338
lfingers 7.12502
lthumb -2.04944 25.8365
rfemur -6.30396 24.3865 24.2826
rtibia 1.98034
rfoot -12.113 -17.1012
rtoes -2.83039
lfemur 8.2592 -42.1566 -12.9673
ltibia -4.34921
lfoot -41.0363 55.4399
ltoes 22.0593
1168
root 0.619316 17.5554 9.64434 12.8869 -12.4595 -10.276
lowerback 1.67039 2.68745 10.8166
upperback -9.15562 4.38997 0.000752505
thorax -10.0464 1.2342 -6.45444
lowerneck -12.6893 8.93488 13.4517
upperneck 13.4339 12.6313 -17.2373
head 8.27306 5.37249 -6.48197
rclavicle 3.04141e-014 -3.18055e-015
rhumerus 84.2032 37.5072 -29.4808
rradius 92.4848
rwrist -30.3583
rhand 4.16534 -55.2249
rfingers 7.12502
rthumb 29.5735 277.111
lclavicle 3.04141e-014 -3.18055e-015
lhumerus 6.40177 15.0946 80.1229
lradius 104.997
lwrist 101.867
lhand -28.5957 -3.99433
lfingers 7.12502
lthumb -1.96126 25.9764
rfemur -6.40969 24.3746 24.1574
rtibia 1.9138
rfoot -11.8966 -16.8354
rtoes -3.2801
lfemur 8.3426 -42.3123 -13.1456
ltibia -4.3539
lfoot -41.7845 55.604
ltoes 22.5837
1169
root 0.619964 17.558 9.64276 12.9714 -12.6229 -10.2679
lowerback 1.77475 2.83742 10.8996
upperback -9.23694 4.60585 -0.149454
thorax -10.1459 1.31558 -6.69057
lowerneck -12.6525 8.85515 13.7463
upperneck 13.5029 12.4964 -17.3494
head 8.2943 5.31649 -6.59498
rclavicle 2.28602e-015 7.95139e-016
rhumerus 84.4377 37.1886 -30.9664
rradius 91.3093
rwrist -30.1049
rhand 4.20477 -55.1128
rfingers 7.12502
rthumb 29.6112 277.23
lclavicle 2.28602e-015 7.95139e-016
lhumerus 6.45676 14.7176 80.1659
lradius 104.943
lwrist 101.889
lhand -28.5928 -4.03005
lfingers 7.12502
lthumb -1.9584 25.9407
rfemur -6.52602 24.3632 24.0734
rtibia 1.88287
rfoot -11.7463 -16.6896
rtoes -3.66264
lfemur 8.33552 -42.4492 -13.2076
ltibia -4.34929
lfoot -42.3138 55.7227
ltoes 22.919
1170
root 0.619822 17.56 9.6402 13.0226 -12.6762 -10.2608
lowerback 1.84988 2.37356 10.7845
upperback -9.2658 4.0267 0.385423
thorax -10.3804 1.05169 -6.00446
lowerneck -11.7208 9.21294 13.1922
upperneck 12.8808 13.1804 -17.6571
head 8.02639 5.64919 -6.52184
rclavicle -4.67144e-014 1.82882e-014
rhumerus 86.6476 38.0206 -31.1916
rradius 90.4318
rwrist -30.1992
rhand 4.3373 -55.1382
rfingers 7.12502
rthumb 29.7377 277.227
lclavicle -4.67144e-014 1.82882e-014
lhumerus 5.9175 16.3442 80.0272
lradius 105.131
lwrist 101.838
lhand -28.668 -4.14354
lfingers 7.12502
lthumb -2.03103 25.8265
rfemur -6.59785 24.3556 24.0272
rtibia 1.86419
rfoot -11.6702 -16.651
rtoes -3.94865
lfemur 8.30371 -42.5525 -13.2207
ltibia -4.34798
lfoot -42.5988 55.7995
ltoes 23.0279
1171
root 0.618313 17.5604 9.63746 13.039 -12.6676 -10.3039
lowerback 1.95166 2.31854 10.8436
upperback -9.28974 3.97465 0.411276
thorax -10.4798 1.01502 -6.01161
lowerneck -11.4078 9.24023 13.3732
upperneck 12.6967 13.235 -17.8846
head 7.95062 5.68861 -6.63085
rclavicle -3.13086e-014 1.59028e-015
rhumerus 87.0896 38.257 -32.104
rradius 89.7682
rwrist -30.3568
rhand 4.2139 -55.3146
rfingers 7.12502
rthumb 29.6199 277.03
lclavicle -3.13086e-014 1.59028e-015
lhumerus 5.93113 16.4474 80.0543
lradius 105.089
lwrist 101.907
lhand -28.7839 -4.00488
lfingers 7.12502
lthumb -2.14303 25.9641
rfemur -6.5993 24.3473 24.0785
rtibia 1.83658
rfoot -11.6273 -16.6519
rtoes -4.09174
lfemur 8.32254 -42.6551 -13.1908
ltibia -4.36345
lfoot -42.7688 55.894
ltoes 23.0135
1172
root 0.615732 17.56 9.63516 13.0418 -12.5851 -10.4197
lowerback 2.03839 2.28123 10.9526
upperback -9.28814 3.94532 0.419353
thorax -10.5338 0.98815 -6.06597
lowerneck -11.4673 9.26767 13.371
upperneck 12.8023 13.2618 -17.7691
head 7.9904 5.70365 -6.58556
rclavicle 1.61016e-014 3.02153e-014
rhumerus 87.2365 38.4333 -32.7384
rradius 89.4695
rwrist -30.4519
rhand 3.97705 -55.5354
rfingers 7.12502
rthumb 29.3938 276.769
lclavicle 1.61016e-014 3.02153e-014
lhumerus 5.97794 16.4091 80.0682
lradius 105.033
lwrist 102.038
lhand -28.8456 -3.78571
lfingers 7.12502
lthumb -2.20261 26.1827
rfemur -6.56669 24.3288 24.2425
rtibia 1.82611
rfoot -11.6345 -16.6784
rtoes -3.89944
lfemur 8.41043 -42.8443 -13.1062
ltibia -4.41496
lfoot -42.9414 56.0288
ltoes 23.0262
